<?xml version="1.0" standalone="no"?><!DOCTYPE svg PUBLIC "-//W3C//DTD SVG 1.1//EN" "http://www.w3.org/Graphics/SVG/1.1/DTD/svg11.dtd"><svg t="1641534116898" class="icon" viewBox="0 0 1024 1024" version="1.1" xmlns="http://www.w3.org/2000/svg" p-id="18108" xmlns:xlink="http://www.w3.org/1999/xlink" width="200" height="200"><defs><style type="text/css"></style></defs><path d="M334.908731 169.630162c-35.957752 33.057245-72.000813 66.029182-108.001219 98.958464-0.938399 0.85309-2.047416 1.450253-5.502432 3.838905 13.948025-30.07143 22.734854-59.289769 37.066769-86.290074 5.886322-11.047518 15.995441-15.654205 27.298887-17.488349 15.142351-2.388653 30.497975-3.582979 45.810943-5.289159 2.17538-0.255927 4.905269-1.109017 6.227559 1.109017 1.620871 2.687234-1.407599 3.838906-2.900507 5.203851m686.950886 341.492008c-5.545086-47.047925-22.862817-89.745089-45.171126-130.778728-1.620871-3.02847-3.199088-6.99534-7.763121-5.630396-4.265451 1.279635-2.900507 5.374468-2.772543 8.31763 0.554509 20.090274-0.981054 39.967276-5.28916 59.673659-11.516718 52.507702-36.512261 98.318646-69.484197 139.992103-35.829789 45.29909-78.271026 83.560185-124.977714 117.129285-11.132827 7.933739-21.7538 16.805877-35.27528 23.033435-0.383891-4.478724 1.279635-6.014286 2.772543-7.720466 14.459879-16.038096 27.768086-33.014591 40.820366-50.204359 41.758765-55.024318 76.351573-113.887542 97.550865-180.087342 13.777407-43.038401 19.19453-86.929892 11.815299-131.802436-9.895846-60.228168-42.227965-106.423003-89.531817-143.063227-3.625633-2.815198-7.677812-5.758359-12.19919-2.900507-5.033232 3.199088-2.772543 7.976393-1.279635 12.241845 11.857954 33.569099 16.805877 68.119253 15.526242 103.735769-2.345998 65.389364-26.488451 122.930298-61.84904 176.589671-1.194326 1.834144-2.431307 4.691996-4.819959 3.753597-3.241743-1.236981-1.578217-4.180142-1.023709-6.654103 11.943263-52.720975 16.038096-105.612567 7.080649-159.442559a316.368502 316.368502 0 0 0-48.370215-122.247826c-27.597468-42.227965-63.043366-77.332627-102.200206-108.641037-5.331814-4.265451-6.910031-8.019048-4.862614-14.758461 8.104357-26.445796 15.69686-53.104865 23.332017-79.763934 3.327052-11.516718 3.113779-11.644681-9.213374-11.644681-17.658967 0-35.403243 0.383891-53.062211 0.085309-53.744683-0.938399-103.394533 13.436171-149.546712 40.649748a31.479028 31.479028 0 0 1-15.355624 4.947923 389.819568 389.819568 0 0 0-56.474571 5.67305c-62.872748 11.175482-115.167177 42.995746-158.248233 88.337491-54.299191 57.157044-105.441949 117.427866-158.248232 176.163126-4.862614 5.417123-4.734651 9.213374-0.554509 14.929079 23.289363 31.606992 46.194834 63.55522 69.484197 95.247521 4.052178 5.545086 5.715704 11.047518 5.843668 17.829585 1.151672 62.574166 31.479028 106.849548 85.30902 135.89727 15.568896 8.445593 15.824823 7.933739 24.526343-7.677812 0.938399-1.70618 2.047416-3.284397 3.156434-4.862614a233.149552 233.149552 0 0 1 89.361199-78.996153c42.739819-22.052382 87.612364-23.459981 133.210035-12.540426 21.7538 5.20385 39.583385 18.128167 53.957955 35.488552 3.710942 4.478724 6.014286 6.270213 8.957447-0.895744 24.313071-58.948533 25.678015-118.579538 5.67305-178.893016-3.710942-11.260791-8.23232-22.308309-13.222898-35.744479 3.582979 2.64458 5.289159 3.540324 6.483486 4.905268 20.602128 22.948126 37.194733 48.626142 50.076395 76.6075 30.284702 66.029182 36.341643 135.42807 26.445796 206.533138-8.147011 59.20446-25.763324 115.84965-49.393923 170.575387a974.527593 974.527593 0 0 1-116.574776 200.049652c-7.549848 10.02381-15.654205 19.621075-23.417326 29.516921-3.582979 4.564033-3.710942 9.383992-0.426545 14.331915 3.199088 4.905269 7.763121 5.246505 12.796353 4.137488a58.436679 58.436679 0 0 0 7.37923-2.132726c35.915098-12.881662 71.958159-25.507397 107.702638-38.943567 60.995949-22.905472 121.650663-46.706689 181.708213-72.000813 78.356335-33.014591 154.622599-69.825433 222.656543-121.863936 39.498076-30.284702 74.04823-65.133437 98.702537-108.769001 25.891288-45.896253 34.464844-95.247521 28.27994-147.712568" fill="#99cc66" p-id="18109"></path></svg>