<?xml version="1.0" standalone="no"?><!DOCTYPE svg PUBLIC "-//W3C//DTD SVG 1.1//EN" "http://www.w3.org/Graphics/SVG/1.1/DTD/svg11.dtd"><svg t="1657172611612" class="icon" viewBox="0 0 1024 1024" version="1.1" xmlns="http://www.w3.org/2000/svg" p-id="8639" xmlns:xlink="http://www.w3.org/1999/xlink" width="200" height="200"><defs><style type="text/css"></style></defs><path d="M511.34 509.99m-413.53 0a413.53 413.53 0 1 0 827.06 0 413.53 413.53 0 1 0-827.06 0Z" fill="#646C77" p-id="8640"></path><path d="M442.43 509.99c0-141.29 85.06-262.72 206.76-315.9-42.23-18.45-88.84-28.7-137.86-28.7-190.31 0-344.6 154.29-344.6 344.6 0 190.33 154.29 344.62 344.6 344.62 49.02 0 95.63-10.27 137.86-28.72-121.7-53.18-206.76-174.59-206.76-315.9z" fill="#FECD57" p-id="8641"></path><path d="M235.67 509.99c0-178.65 135.97-325.57 310.07-342.88a346.302 346.302 0 0 0-34.4-1.72c-190.31 0-344.6 154.29-344.6 344.6 0 190.33 154.29 344.62 344.6 344.62 11.61 0 23.07-0.61 34.4-1.72-174.11-17.34-310.07-164.23-310.07-342.9z" fill="#F5BA45" p-id="8642"></path></svg>