<?xml version="1.0" standalone="no"?><!DOCTYPE svg PUBLIC "-//W3C//DTD SVG 1.1//EN" "http://www.w3.org/Graphics/SVG/1.1/DTD/svg11.dtd"><svg t="1657172604930" class="icon" viewBox="0 0 1024 1024" version="1.1" xmlns="http://www.w3.org/2000/svg" p-id="8494" xmlns:xlink="http://www.w3.org/1999/xlink" width="200" height="200"><defs><style type="text/css"></style></defs><path d="M509.34 513.01m-428.01 0a428.01 428.01 0 1 0 856.02 0 428.01 428.01 0 1 0-856.02 0Z" fill="#646C77" p-id="8495"></path><path d="M866.01 513.01c0 196.97-159.67 356.67-356.67 356.67-197 0-356.67-159.69-356.67-356.67 0-197 159.67-356.7 356.67-356.7 197 0.01 356.67 159.71 356.67 356.7z" fill="#FECD57" p-id="8496"></path><path d="M223.99 513.01c0-184.96 140.78-337.02 321.01-354.92-11.73-1.15-23.62-1.78-35.66-1.78-197 0-356.67 159.7-356.67 356.7 0 196.97 159.67 356.67 356.67 356.67 12.04 0 23.93-0.6 35.66-1.78-180.23-17.89-321.01-169.95-321.01-354.89z" fill="#F5BA45" p-id="8497"></path></svg>